HIERARCHY
ROOT Root
{
  OFFSET 0.0 0.0 0.0
  CHANNELS 6 Xposition Yposition Zposition Zrotation Yrotation Xrotation
  JOINT Hips
  {
    OFFSET 0.0 100.0 0.0
    CHANNELS 6 Xposition Yposition Zposition Zrotation Yrotation Xrotation
    JOINT Spine1
    {
      OFFSET -0.013727 5.003763 -0.053727
      CHANNELS 3 Zrotation Yrotation Xrotation
      JOINT Spine2
      {
        OFFSET -0.0 7.125301 -0.029825
        CHANNELS 3 Zrotation Yrotation Xrotation
        JOINT Chest
        {
          OFFSET -1e-06 7.550063 -0.815971
          CHANNELS 3 Zrotation Yrotation Xrotation
          JOINT Neck1
          {
            OFFSET -0.181677 26.311295 -0.553348
            CHANNELS 3 Zrotation Yrotation Xrotation
            JOINT Neck2
            {
              OFFSET -3e-06 7.709397 2.302585
              CHANNELS 3 Zrotation Yrotation Xrotation
              JOINT Head
              {
                OFFSET -5e-06 6.128916 1.953709
                CHANNELS 3 Zrotation Yrotation Xrotation
                JOINT HeadEnd
                {
                  OFFSET 0.003598 16.065403 -1.835379
                  CHANNELS 3 Zrotation Yrotation Xrotation
                }
                JOINT Jaw
                {
                  OFFSET 0.002637 0.475592 3.094941
                  CHANNELS 3 Zrotation Yrotation Xrotation
                }
                JOINT LeftEye
                {
                  OFFSET 3.206381 5.380205 7.586883
                  CHANNELS 3 Zrotation Yrotation Xrotation
                }
                JOINT RightEye
                {
                  OFFSET -3.22244 5.361869 7.558234
                  CHANNELS 3 Zrotation Yrotation Xrotation
                }
              }
            }
          }
          JOINT LeftShoulder
          {
            OFFSET 1.621652 23.237164 5.113413
            CHANNELS 3 Zrotation Yrotation Xrotation
            JOINT LeftArm
            {
              OFFSET 14.919846 2e-06 -5.502326
              CHANNELS 3 Zrotation Yrotation Xrotation
              JOINT LeftForeArm
              {
                OFFSET 28.739307 0.0 -0.002588
                CHANNELS 3 Zrotation Yrotation Xrotation
                JOINT LeftHand
                {
                  OFFSET 27.093981 -1e-06 0.002609
                  CHANNELS 3 Zrotation Yrotation Xrotation
                  JOINT LeftHandThumb1
                  {
                    OFFSET 2.276482 -1.392045 3.191413
                    CHANNELS 3 Zrotation Yrotation Xrotation
                    JOINT LeftHandThumb2
                    {
                      OFFSET 4.012836 -1.828127 1.641654
                      CHANNELS 3 Zrotation Yrotation Xrotation
                      JOINT LeftHandThumb3
                      {
                        OFFSET 2.798515 0.0 -3e-06
                        CHANNELS 3 Zrotation Yrotation Xrotation
                        JOINT LeftHandThumbEnd
                        {
                          OFFSET 3.180793 -4e-06 4e-06
                          CHANNELS 3 Zrotation Yrotation Xrotation
                        }
                      }
                    }
                  }
                  JOINT LeftHandIndex1
                  {
                    OFFSET 3.247555 -0.531998 2.296169
                    CHANNELS 3 Zrotation Yrotation Xrotation
                    JOINT LeftHandIndex2
                    {
                      OFFSET 6.364578 0.01206 0.1786
                      CHANNELS 3 Zrotation Yrotation Xrotation
                      JOINT LeftHandIndex3
                      {
                        OFFSET 3.662364 0.0 0.0
                        CHANNELS 3 Zrotation Yrotation Xrotation
                        JOINT LeftHandIndex4
                        {
                          OFFSET 2.329242 4e-06 4e-06
                          CHANNELS 3 Zrotation Yrotation Xrotation
                          JOINT LeftHandIndexEnd
                          {
                            OFFSET 2.759615 -0.180537 -0.113024
                            CHANNELS 3 Zrotation Yrotation Xrotation
                          }
                        }
                      }
                    }
                  }
                  JOINT LeftHandMiddle1
                  {
                    OFFSET 3.163495 0.240981 1.000332
                    CHANNELS 3 Zrotation Yrotation Xrotation
                    JOINT LeftHandMiddle2
                    {
                      OFFSET 6.19078 -0.259278 -1.002548
                      CHANNELS 3 Zrotation Yrotation Xrotation
                      JOINT LeftHandMiddle3
                      {
                        OFFSET 4.35652 -4e-06 -1e-06
                        CHANNELS 3 Zrotation Yrotation Xrotation
                        JOINT LeftHandMiddle4
                        {
                          OFFSET 2.996877 -8e-06 0.0
                          CHANNELS 3 Zrotation Yrotation Xrotation
                          JOINT LeftHandMiddleEnd
                          {
                            OFFSET 2.304287 -0.294569 -0.031741
                            CHANNELS 3 Zrotation Yrotation Xrotation
                          }
                        }
                      }
                    }
                  }
                  JOINT LeftHandRing1
                  {
                    OFFSET 2.882643 -0.053652 -0.322543
                    CHANNELS 3 Zrotation Yrotation Xrotation
                    JOINT LeftHandRing2
                    {
                      OFFSET 5.854541 -0.486202 -1.373841
                      CHANNELS 3 Zrotation Yrotation Xrotation
                      JOINT LeftHandRing3
                      {
                        OFFSET 4.350578 0.0 3e-06
                        CHANNELS 3 Zrotation Yrotation Xrotation
                        JOINT LeftHandRing4
                        {
                          OFFSET 2.651321 7e-06 2e-06
                          CHANNELS 3 Zrotation Yrotation Xrotation
                          JOINT LeftHandRingEnd
                          {
                            OFFSET 1.936105 0.077687 -7.1e-05
                            CHANNELS 3 Zrotation Yrotation Xrotation
                          }
                        }
                      }
                    }
                  }
                  JOINT LeftHandPinky1
                  {
                    OFFSET 2.8655 -0.310005 -1.600378
                    CHANNELS 3 Zrotation Yrotation Xrotation
                    JOINT LeftHandPinky2
                    {
                      OFFSET 5.087849 -1.331141 -1.77123
                      CHANNELS 3 Zrotation Yrotation Xrotation
                      JOINT LeftHandPinky3
                      {
                        OFFSET 3.070974 4e-06 0.0
                        CHANNELS 3 Zrotation Yrotation Xrotation
                        JOINT LeftHandPinky4
                        {
                          OFFSET 1.549672 0.0 1e-06
                          CHANNELS 3 Zrotation Yrotation Xrotation
                          JOINT LeftHandPinkyEnd
                          {
                            OFFSET 1.944893 -0.157802 0.057219
                            CHANNELS 3 Zrotation Yrotation Xrotation
                          }
                        }
                      }
                    }
                  }
                }
              }
            }
          }
          JOINT RightShoulder
          {
            OFFSET -1.380118 23.180309 5.214158
            CHANNELS 3 Zrotation Yrotation Xrotation
            JOINT RightArm
            {
              OFFSET -15.037196 1.2e-05 -5.545604
              CHANNELS 3 Zrotation Yrotation Xrotation
              JOINT RightForeArm
              {
                OFFSET -28.736639 2e-06 -0.002597
                CHANNELS 3 Zrotation Yrotation Xrotation
                JOINT RightHand
                {
                  OFFSET -27.133619 -0.0 0.002613
                  CHANNELS 3 Zrotation Yrotation Xrotation
                  JOINT RightHandThumb1
                  {
                    OFFSET -2.274032 -1.383988 3.163127
                    CHANNELS 3 Zrotation Yrotation Xrotation
                    JOINT RightHandThumb2
                    {
                      OFFSET -4.011429 -1.827466 1.640914
                      CHANNELS 3 Zrotation Yrotation Xrotation
                      JOINT RightHandThumb3
                      {
                        OFFSET -2.794935 -4e-06 -3e-06
                        CHANNELS 3 Zrotation Yrotation Xrotation
                        JOINT RightHandThumbEnd
                        {
                          OFFSET -3.183852 4e-06 1e-06
                          CHANNELS 3 Zrotation Yrotation Xrotation
                        }
                      }
                    }
                  }
                  JOINT RightHandIndex1
                  {
                    OFFSET -3.253266 -0.520057 2.282866
                    CHANNELS 3 Zrotation Yrotation Xrotation
                    JOINT RightHandIndex2
                    {
                      OFFSET -6.341917 0.012471 0.178266
                      CHANNELS 3 Zrotation Yrotation Xrotation
                      JOINT RightHandIndex3
                      {
                        OFFSET -3.654871 -8e-06 -0.0
                        CHANNELS 3 Zrotation Yrotation Xrotation
                        JOINT RightHandIndex4
                        {
                          OFFSET -2.327586 0.0 1e-06
                          CHANNELS 3 Zrotation Yrotation Xrotation
                          JOINT RightHandIndexEnd
                          {
                            OFFSET -2.76179 -0.180656 -0.113078
                            CHANNELS 3 Zrotation Yrotation Xrotation
                          }
                        }
                      }
                    }
                  }
                  JOINT RightHandMiddle1
                  {
                    OFFSET -3.168106 0.246593 1.00103
                    CHANNELS 3 Zrotation Yrotation Xrotation
                    JOINT RightHandMiddle2
                    {
                      OFFSET -6.180828 -0.258836 -1.000895
                      CHANNELS 3 Zrotation Yrotation Xrotation
                      JOINT RightHandMiddle3
                      {
                        OFFSET -4.348901 0.0 -0.0
                        CHANNELS 3 Zrotation Yrotation Xrotation
                        JOINT RightHandMiddle4
                        {
                          OFFSET -3.00024 -4e-06 -2e-06
                          CHANNELS 3 Zrotation Yrotation Xrotation
                          JOINT RightHandMiddleEnd
                          {
                            OFFSET -2.30252 -0.29437 -0.031706
                            CHANNELS 3 Zrotation Yrotation Xrotation
                          }
                        }
                      }
                    }
                  }
                  JOINT RightHandRing1
                  {
                    OFFSET -2.88569 -0.067952 -0.308858
                    CHANNELS 3 Zrotation Yrotation Xrotation
                    JOINT RightHandRing2
                    {
                      OFFSET -5.854198 -0.48613 -1.373731
                      CHANNELS 3 Zrotation Yrotation Xrotation
                      JOINT RightHandRing3
                      {
                        OFFSET -4.33881 -4e-06 -0.0
                        CHANNELS 3 Zrotation Yrotation Xrotation
                        JOINT RightHandRing4
                        {
                          OFFSET -2.654903 -4e-06 4e-06
                          CHANNELS 3 Zrotation Yrotation Xrotation
                          JOINT RightHandRingEnd
                          {
                            OFFSET -1.933568 0.077527 -5.2e-05
                            CHANNELS 3 Zrotation Yrotation Xrotation
                          }
                        }
                      }
                    }
                  }
                  JOINT RightHandPinky1
                  {
                    OFFSET -2.866425 -0.342796 -1.584145
                    CHANNELS 3 Zrotation Yrotation Xrotation
                    JOINT RightHandPinky2
                    {
                      OFFSET -5.091371 -1.332055 -1.772385
                      CHANNELS 3 Zrotation Yrotation Xrotation
                      JOINT RightHandPinky3
                      {
                        OFFSET -3.062664 -4e-06 1e-06
                        CHANNELS 3 Zrotation Yrotation Xrotation
                        JOINT RightHandPinky4
                        {
                          OFFSET -1.546529 4e-06 -2e-06
                          CHANNELS 3 Zrotation Yrotation Xrotation
                          JOINT RightHandPinkyEnd
                          {
                            OFFSET -1.945119 -0.157718 0.057211
                            CHANNELS 3 Zrotation Yrotation Xrotation
                          }
                        }
                      }
                    }
                  }
                }
              }
            }
          }
        }
      }
    }
    JOINT LeftLeg
    {
      OFFSET 10.043214 -8.434526 2.595655
      CHANNELS 3 Zrotation Yrotation Xrotation
      JOINT LeftShin
      {
        OFFSET -1e-06 -43.221752 -0.802913
        CHANNELS 3 Zrotation Yrotation Xrotation
        JOINT LeftFoot
        {
          OFFSET 1e-06 -42.155094 -3.481523
          CHANNELS 3 Zrotation Yrotation Xrotation
          JOINT LeftToeBase
          {
            OFFSET 0.0 -5.059472 13.231529
            CHANNELS 3 Zrotation Yrotation Xrotation
            JOINT LeftToeEnd
            {
              OFFSET -0.009607 -1.647619 6.513017
              CHANNELS 3 Zrotation Yrotation Xrotation
            }
          }
        }
      }
    }
    JOINT RightLeg
    {
      OFFSET -10.047278 -8.29526 2.620317
      CHANNELS 3 Zrotation Yrotation Xrotation
      JOINT RightShin
      {
        OFFSET 1e-06 -43.362206 -0.805556
        CHANNELS 3 Zrotation Yrotation Xrotation
        JOINT RightFoot
        {
          OFFSET 2e-06 -42.117393 -3.478398
          CHANNELS 3 Zrotation Yrotation Xrotation
          JOINT RightToeBase
          {
            OFFSET -0.0 -5.079609 13.284196
            CHANNELS 3 Zrotation Yrotation Xrotation
            JOINT RightToeEnd
            {
              OFFSET 0.009532 -1.634378 6.460591
              CHANNELS 3 Zrotation Yrotation Xrotation
            }
          }
        }
      }
    }
  }
}
MOTION
Frames: 4
Frame Time: 0.03333333333333333
0.0 0.0 0.0 0.0 -0.0 0.0 5.650215 100.153229 -20.556429 0.362532 -13.511998 -1.432107 -0.831884 -0.16284 -1.829678 -0.655246 0.382037 -5.231511 1.353831 -1.281571 8.661223 -2.520159 3.427478 0.105735 -0.266121 1.09032 -3.561797 1.120034 -0.255332 -3.64686 7.7e-05 -2.2e-05 6e-06 0.000137 -0.083235 0.027232 0.707074 -3.802342 -10.532816 -0.710181 3.636782 -10.521729 -6.498819 -2.527386 11.746277 -64.961037 -8.219458 15.652188 -0.165748 -31.163073 0.024037 0.567236 2.713723 2.404069 -5.882106 9.861288 0.702589 -10.936872 -0.360574 7.156204 -1e-06 8.774827 -1e-06 -15.636292 18.246872 6.240549 -1.844032 2.498505 -2.507276 -10.163599 4.678947 4.621109 -20.976023 -1e-06 1e-06 -21.226286 2.4517 -3.594003 0.0 -6e-06 -1e-06 -1.362682 2.240799 -0.746323 -21.334913 0.584912 3.008322 -13.821212 -1e-06 1e-06 -23.887171 -0.249077 -0.839485 -60.374302 2.750199 -1.447284 -0.294025 1.679688 0.833257 -14.218208 0.093217 1.30058 -34.212048 -0.287561 0.967168 -20.033213 0.964539 1.212842 -0.0 0.0 -1e-06 -3.440388 0.788235 0.501656 -15.928183 -3.16731 2.999707 -6.338825 1e-06 -0.0 -18.123444 3.648187 -4.905672 -4e-06 -0.0 -1e-06 11.713737 10.880824 13.264532 68.343384 3.248363 3.083891 -0.388605 27.986839 -0.097834 4.007194 -0.310772 12.57027 2.243543 -5.255039 -3.180159 14.282901 -0.826597 6.952507 -3e-06 -12.690613 2e-06 16.061365 -17.53631 2.566573 1.665668 -1.955922 -2.878302 4.727802 -4.17059 4.993928 11.020535 3e-06 -3e-06 12.109062 -3.735718 -2.866787 -1e-06 0.0 -1e-06 1.291987 -1.928551 -1.498091 14.800139 0.567468 3.86561 14.242584 -1.341737 -6.660664 19.631979 0.143926 -0.648246 49.761475 -0.685054 -6.451698 0.353029 -1.511151 -0.03194 20.222805 3.684311 2.316629 18.787289 5e-06 -3e-06 10.751637 -0.47987 1.397905 -0.0 -1e-06 1e-06 3.273809 0.305946 -0.580113 21.486832 11.830383 2.266132 8.162937 2e-06 -0.0 18.399099 -3.798988 -4.94058 4e-06 0.0 -2e-06 6.433821 17.33997 0.265013 -0.036453 -0.051657 5.540311 -7.750121 -2.036734 -2.553068 1.655151 -1.949449 -0.349998 0.0 -0.0 2e-06 -3.476355 -23.369993 4.424082 0.042298 -0.032318 4.791499 5.166393 -4.425829 -7.087831 -1.413003 0.923478 -0.207493 -0.0 1e-06 -1e-06 
0.0 0.0 0.0 0.0 -0.0 0.0 5.625851 100.194046 -20.597658 0.364809 -13.552483 -1.585593 -0.764602 -0.228511 -1.84425 -0.638191 0.514329 -5.232835 1.288994 -1.384876 8.600354 -2.504378 3.472461 0.210462 -0.208962 1.377236 -3.596363 1.152404 -0.10977 -3.737978 7.7e-05 -2.3e-05 6e-06 -0.013836 -0.134369 0.024843 0.678439 -3.861562 -10.554444 -0.708398 3.595301 -10.554564 -6.525384 -2.285147 11.722639 -65.079613 -8.357039 15.206803 -0.270938 -31.198109 0.159206 1.137251 2.722777 1.883022 -5.882106 9.861286 0.702588 -10.936873 -0.360574 7.156206 0.0 8.774826 -1e-06 -15.516889 18.445835 6.285787 -1.844034 2.498504 -2.507276 -10.163601 4.678945 4.621107 -20.976027 -3e-06 0.0 -21.226288 2.451697 -3.594 -0.0 -7e-06 -1e-06 -1.362682 2.240798 -0.746322 -21.334913 0.584909 3.008322 -13.821213 -4e-06 -0.0 -23.887171 -0.249081 -0.839484 -60.171329 2.889463 -1.567411 -0.294025 1.679688 0.833257 -14.218209 0.093214 1.300581 -34.212051 -0.287566 0.967169 -20.033215 0.964533 1.212843 -0.0 0.0 -1e-06 -3.440388 0.788234 0.501655 -15.928185 -3.16731 2.999707 -6.338826 -1e-06 -0.0 -18.123444 3.648182 -4.905671 -4e-06 -0.0 -1e-06 11.697288 10.670993 13.138427 68.342636 3.438255 3.818455 -0.402723 27.422699 -0.066445 3.542829 -0.135544 11.674355 2.243541 -5.255037 -3.180158 14.282892 -0.826594 6.952503 -4e-06 -12.690603 1e-06 16.156158 -17.574522 2.563565 1.665666 -1.95592 -2.878299 4.727798 -4.170587 4.993922 11.020528 5e-06 -3e-06 12.109053 -3.735714 -2.866784 0.0 0.0 1e-06 1.291986 -1.92855 -1.498088 14.800129 0.56747 3.865607 14.242573 -1.341735 -6.660657 19.631968 0.143928 -0.648244 49.786755 -0.826638 -6.428351 0.353029 -1.51115 -0.031942 20.222794 3.684312 2.316629 18.787273 8e-06 -1e-06 10.751627 -0.479867 1.397905 -0.0 -0.0 0.0 3.273807 0.305947 -0.580111 21.486814 11.830378 2.266132 8.162929 2e-06 0.0 18.39908 -3.798983 -4.940574 4e-06 0.0 -1e-06 6.485041 16.892908 0.413029 -0.069945 -0.051834 5.548285 -7.449461 -1.861521 -2.711367 1.651605 -1.910124 -0.473392 0.0 -0.0 2e-06 -3.449085 -23.087557 4.324949 0.067581 0.005428 5.294208 5.20403 -4.464939 -7.326979 -1.402647 0.946335 -0.28836 0.0 1e-06 -1e-06 
0.0 0.0 0.0 0.0 -0.0 0.0 5.608732 100.184097 -20.617201 0.378664 -13.469416 -1.701496 -0.694077 -0.265671 -1.875538 -0.617455 0.610363 -5.238215 1.186949 -1.494167 8.529524 -2.459303 3.513437 0.323907 -0.1828 1.55578 -3.600237 1.139191 0.064632 -3.933482 7.7e-05 -2.3e-05 6e-06 -0.01919 -0.162135 0.022994 0.667425 -3.892627 -10.562928 -0.707402 3.571335 -10.578568 -6.514098 -2.005262 11.688459 -65.149544 -8.575324 14.770931 -0.305425 -31.093323 0.19736 1.484816 2.692023 1.359931 -5.882109 9.86129 0.702589 -10.936875 -0.360574 7.156207 -0.0 8.774828 -0.0 -15.426488 18.613197 6.3636 -1.844032 2.498505 -2.507277 -10.163602 4.678947 4.621109 -20.976028 -2e-06 3e-06 -21.226292 2.451699 -3.594001 2e-06 -6e-06 -2e-06 -1.362681 2.240798 -0.746324 -21.334921 0.584911 3.008325 -13.821217 -2e-06 1e-06 -23.887178 -0.24908 -0.839484 -60.039715 2.933053 -1.607735 -0.294025 1.679687 0.833255 -14.218212 0.093216 1.300582 -34.212055 -0.287562 0.967167 -20.033218 0.964537 1.212843 -0.0 1e-06 -2e-06 -3.440389 0.788233 0.501655 -15.928192 -3.16731 2.999708 -6.338829 -1e-06 0.0 -18.123453 3.648185 -4.905672 -5e-06 -1e-06 -2e-06 11.668437 10.364235 13.068979 68.346771 3.650902 4.281409 -0.283326 26.852114 0.013965 3.036902 0.091003 10.733656 2.243541 -5.255037 -3.180157 14.282887 -0.826595 6.9525 -1e-06 -12.690603 0.0 16.147709 -17.537052 2.598458 1.665666 -1.955922 -2.878298 4.727798 -4.170587 4.993924 11.020524 2e-06 -1e-06 12.10905 -3.735716 -2.866784 0.0 0.0 0.0 1.291986 -1.928549 -1.498089 14.800125 0.567467 3.865609 14.242568 -1.341738 -6.660657 19.631966 0.143925 -0.648246 49.71315 -0.930145 -6.364515 0.353029 -1.511151 -0.03194 20.222786 3.684307 2.31663 18.78727 3e-06 -2e-06 10.751627 -0.479869 1.397905 -0.0 -1e-06 1e-06 3.273806 0.305947 -0.580111 21.486809 11.830371 2.266134 8.162926 1e-06 -0.0 18.399076 -3.798987 -4.940574 4e-06 0.0 -2e-06 6.48004 16.321266 0.499203 -0.106744 -0.066867 5.529117 -7.284943 -1.644242 -2.76521 1.653496 -1.89118 -0.505896 0.0 -0.0 2e-06 -3.426487 -22.704552 4.406405 0.091045 0.021055 5.371942 5.126351 -4.488912 -7.338679 -1.395273 0.948659 -0.295454 -0.0 1e-06 -1e-06 
0.0 0.0 0.0 0.0 -0.0 0.0 5.588383 100.153778 -20.621468 0.388096 -13.349833 -1.827513 -0.630018 -0.290956 -1.891622 -0.608695 0.678501 -5.243623 1.100615 -1.591856 8.464205 -2.41735 3.560092 0.482023 -0.174981 1.660495 -3.597927 1.118933 0.22106 -4.218525 7.7e-05 -2.3e-05 6e-06 -0.023211 -0.189637 0.021583 0.662058 -3.92036 -10.567516 -0.709751 3.543529 -10.59453 -6.559279 -1.734763 11.597666 -65.087608 -8.754316 14.385858 -0.351056 -30.902231 0.200243 1.712024 2.586879 0.961493 -5.88211 9.861291 0.70259 -10.936881 -0.360575 7.156211 1e-06 8.774831 0.0 -15.358568 18.715002 6.422806 -1.844035 2.498506 -2.507281 -10.163608 4.678946 4.621111 -20.976044 -6e-06 2e-06 -21.226307 2.451696 -3.594001 2e-06 -6e-06 -2e-06 -1.362682 2.240799 -0.746324 -21.334932 0.584908 3.008323 -13.821225 -4e-06 0.0 -23.88719 -0.24908 -0.839483 -59.96249 2.951544 -1.59695 -0.294023 1.679688 0.833256 -14.218221 0.093214 1.300579 -34.212082 -0.287568 0.967173 -20.03323 0.964535 1.212845 -0.0 1e-06 -1e-06 -3.440391 0.788234 0.501655 -15.928201 -3.167312 2.999709 -6.338831 -2e-06 -1e-06 -18.123463 3.648183 -4.905672 -5e-06 0.0 0.0 11.676401 10.098442 13.057169 68.29583 3.846244 4.70226 -0.239446 26.305887 0.047919 2.563486 0.318553 9.742019 2.243543 -5.255037 -3.180158 14.282896 -0.826594 6.9525 -4e-06 -12.690608 1e-06 16.120451 -17.489382 2.619378 1.665668 -1.955921 -2.878299 4.7278 -4.170587 4.993924 11.020531 4e-06 -2e-06 12.109056 -3.735715 -2.866786 1e-06 0.0 0.0 1.291986 -1.928549 -1.498089 14.800134 0.56747 3.865606 14.242579 -1.341734 -6.66066 19.631975 0.143929 -0.648246 49.627323 -0.974738 -6.301933 0.353029 -1.511152 -0.03194 20.222797 3.684313 2.316628 18.787279 7e-06 -2e-06 10.751631 -0.479866 1.397906 -0.0 -1e-06 1e-06 3.273808 0.305946 -0.580112 21.48682 11.830379 2.266131 8.16293 4e-06 -2e-06 18.399088 -3.798982 -4.940578 4e-06 0.0 -1e-06 6.47748 15.654085 0.618301 -0.134533 -0.084052 5.483604 -7.210153 -1.382997 -2.807827 1.655815 -1.884568 -0.486203 -0.0 -0.0 2e-06 -3.400862 -22.210522 4.574417 0.10045 0.025562 5.278563 4.99746 -4.52861 -7.29856 -1.390681 0.936281 -0.250384 -0.0 0.0 -1e-06 
